<svg width="143" height="30" viewBox="0 0 143 30" fill="none" xmlns="http://www.w3.org/2000/svg">
<path d="M124.188 0.537598H129.386V10.7035C130.409 9.82122 131.438 9.16267 132.474 8.7279C133.51 8.28034 134.558 8.05656 135.62 8.05656C137.691 8.05656 139.437 8.77266 140.856 10.2048C142.071 11.4452 142.678 13.2674 142.678 15.6714V29.4626H137.519V20.3132C137.519 17.8964 137.403 16.2597 137.173 15.4029C136.943 14.5462 136.547 13.9068 135.984 13.4848C135.434 13.0628 134.75 12.8518 133.932 12.8518C132.87 12.8518 131.956 13.2035 131.189 13.9068C130.434 14.6101 129.91 15.5691 129.616 16.7839C129.462 17.4105 129.386 18.8427 129.386 21.0805V29.4626H124.188V0.537598Z" fill="white"/>
<path d="M114.835 8.59322H120.052V29.4622H114.835V27.2564C113.812 28.2282 112.783 28.9315 111.747 29.3663C110.724 29.7883 109.611 29.9993 108.409 29.9993C105.711 29.9993 103.377 28.9571 101.408 26.8728C99.4387 24.7756 98.4541 22.1734 98.4541 19.0661C98.4541 15.8437 99.4068 13.2031 101.312 11.1443C103.217 9.08553 105.532 8.05615 108.256 8.05615C109.509 8.05615 110.685 8.29272 111.785 8.76585C112.885 9.23898 113.902 9.94868 114.835 10.8949V8.59322ZM109.33 12.8898C107.706 12.8898 106.357 13.4652 105.283 14.6161C104.209 15.7541 103.671 17.2183 103.671 19.0085C103.671 20.8115 104.215 22.2949 105.302 23.4585C106.402 24.6222 107.751 25.204 109.349 25.204C110.999 25.204 112.367 24.635 113.454 23.4969C114.541 22.346 115.084 20.8435 115.084 18.9893C115.084 17.1735 114.541 15.703 113.454 14.5777C112.367 13.4524 110.992 12.8898 109.33 12.8898Z" fill="white"/>
<path d="M77.0186 0.537598H82.2167V10.7035C83.2397 9.82122 84.2691 9.16267 85.3049 8.7279C86.3407 8.28034 87.3893 8.05656 88.4507 8.05656C90.5223 8.05656 92.2678 8.77266 93.6872 10.2048C94.902 11.4452 95.5094 13.2674 95.5094 15.6714V29.4626H90.3496V20.3132C90.3496 17.8964 90.2345 16.2597 90.0044 15.4029C89.7742 14.5462 89.3778 13.9068 88.8151 13.4848C88.2653 13.0628 87.5811 12.8518 86.7627 12.8518C85.7013 12.8518 84.787 13.2035 84.0198 13.9068C83.2653 14.6101 82.741 15.5691 82.4469 16.7839C82.2934 17.4105 82.2167 18.8427 82.2167 21.0805V29.4626H77.0186V0.537598Z" fill="white"/>
<path d="M70.7917 0C71.7124 0 72.4988 0.332471 73.151 0.997414C73.8159 1.66236 74.1484 2.46796 74.1484 3.41422C74.1484 4.3477 73.8223 5.14691 73.1702 5.81185C72.518 6.46401 71.738 6.79009 70.83 6.79009C69.8965 6.79009 69.0973 6.45762 68.4324 5.79267C67.7802 5.11494 67.4541 4.29655 67.4541 3.3375C67.4541 2.41681 67.7802 1.63039 68.4324 0.978233C69.0845 0.326078 69.871 0 70.7917 0ZM68.1638 8.59311H73.4195V29.4621H68.1638V8.59311Z" fill="white"/>
<path d="M49.1847 0.537598V10.8954C50.131 9.94909 51.154 9.2394 52.2538 8.76626C53.3535 8.29313 54.53 8.05656 55.7831 8.05656C58.5069 8.05656 60.8215 9.08595 62.7268 11.1447C64.6322 13.2035 65.5848 15.8441 65.5848 19.0665C65.5848 22.1738 64.6002 24.776 62.6309 26.8732C60.6616 28.9575 58.3279 29.9997 55.6297 29.9997C54.4277 29.9997 53.3087 29.7887 52.2729 29.3667C51.2371 28.9319 50.2077 28.2286 49.1847 27.2568V29.4626H43.9866V0.537598H49.1847ZM54.6898 12.8902C53.0402 12.8902 51.6719 13.4528 50.585 14.5781C49.498 15.7034 48.9546 17.174 48.9546 18.9898C48.9546 20.8439 49.498 22.3464 50.585 23.4973C51.6719 24.6354 53.0402 25.2044 54.6898 25.2044C56.2883 25.2044 57.6309 24.6226 58.7179 23.4589C59.8176 22.2953 60.3675 20.812 60.3675 19.0089C60.3675 17.2187 59.8304 15.7546 58.7563 14.6165C57.6821 13.4656 56.3266 12.8902 54.6898 12.8902Z" fill="white"/>
<path d="M34.6524 8.59322H39.8698V29.4622H34.6524V27.2564C33.6294 28.2282 32.6 28.9315 31.5642 29.3663C30.5412 29.7883 29.4287 29.9993 28.2266 29.9993C25.5285 29.9993 23.1947 28.9571 21.2254 26.8728C19.2561 24.7756 18.2715 22.1734 18.2715 19.0661C18.2715 15.8437 19.2242 13.2031 21.1295 11.1443C23.0349 9.08553 25.3494 8.05615 28.0732 8.05615C29.3264 8.05615 30.5028 8.29272 31.6026 8.76585C32.7023 9.23898 33.7189 9.94868 34.6524 10.8949V8.59322ZM29.1473 12.8898C27.5233 12.8898 26.1742 13.4652 25.1001 14.6161C24.0259 15.7541 23.4888 17.2183 23.4888 19.0085C23.4888 20.8115 24.0323 22.2949 25.1192 23.4585C26.219 24.6222 27.5681 25.204 29.1665 25.204C30.8161 25.204 32.1844 24.635 33.2713 23.4969C34.3583 22.346 34.9018 20.8435 34.9018 18.9893C34.9018 17.1735 34.3583 15.703 33.2713 14.5777C32.1844 13.4524 30.8097 12.8898 29.1473 12.8898Z" fill="white"/>
<path d="M1.43861 8.59277H17.4551L8.05619 25.0309H16.918V29.4617H0L9.43726 13.0236H1.43861V8.59277Z" fill="white"/>
</svg>
